# xmcd
#
# Track frame offsets:
#	150
#	10144
#	27437
#	40424
#	54334
#	63522
#	78032
#	86904
#	95374
#	110424
#	127467
#	141494
#	168324
#	193978
#	224675
#	235607
#	263524
#
# Disc length: 3606 seconds
#
# Revision: 1
# Processed by: cddbd v1.5.2PL0 Copyright (c) Steve Scherf et al.
# Submitted via: audiograbber 1.83.01
#
DISCID=f40e1411
DTITLE=Riders in the Sky - Silver Jubilee [CD2]
DYEAR=2003
DGENRE=Country
TTITLE0=Ride Cowboy Ride
TTITLE1=Ringo
TTITLE2=The Biscuit Blues
TTITLE3=Lonely Yukon Stars
TTITLE4=That's How The Yodel Was Born
TTITLE5=Blue Mountana Skies
TTITLE6=Woody's Roundup
TTITLE7=Reincarnation - Sundown in Sante Fe
TTITLE8=My Oklahoma
TTITLE9=Wah-Hoo
TTITLE10=Early Autumn
TTITLE11=Rawhide
TTITLE12=Your Wearing Out Your Welcome Mat
TTITLE13=Questions
TTITLE14=There's A Blue Sky Way Out Yonder
TTITLE15=Riders Radio Theatre Medley - So Long Saddle Pals
TTITLE16=The Cowboy Way
EXTD=YEAR: 2003
EXTT0=
EXTT1=
EXTT2=
EXTT3=
EXTT4=
EXTT5=
EXTT6=
EXTT7=
EXTT8=
EXTT9=
EXTT10=
EXTT11=
EXTT12=
EXTT13=
EXTT14=
EXTT15=
EXTT16=
PLAYORDER=
